# xmcd
# Copyright (C) 1995-1998 Ti Kan
#
# Track frame offsets:
#       150
#       21542
#       41794
#       54500
#       75265
#       90256
#       110103
#       122895
#       129157
#       151778
#       172779
#       196936
#
# Disc length: 2766 seconds
#
# Revision: 0
# Processed by: cddbd v1.5.2PL0 Copyright (c) Steve Scherf et al.
# Submitted via: CD-Import v1.0
#
DISCID=8c0acc0c
DTITLE=Chapter - Three: A Collection Of Monsters
DYEAR=10
DGENRE=
TTITLE0=Tomcat
TTITLE1=A Winter Chill
TTITLE2=The Blue Lake Of Lännalöt
TTITLE3=The Young Ones
TTITLE4=Oh! Frida
TTITLE5=Serial
TTITLE6=My Sweet Girl
TTITLE7=Candle Of Black Hope
TTITLE8=What Am I To Do Now?
TTITLE9=The Bird (Song For Mum)
TTITLE10=The Monsters
TTITLE11=The Kraken
EXTD=
EXTT0=
EXTT1=
EXTT2=
EXTT3=
EXTT4=
EXTT5=
EXTT6=
EXTT7=
EXTT8=
EXTT9=
EXTT10=
EXTT11=
PLAYORDER=
